<!-- <?xml version="1.0" encoding="utf-8"?> -->
<!-- Generator: Adobe Illustrator 21.1.0, SVG Export Plug-In . SVG Version: 6.00 Build 0)  -->
<svg version="1.1" id="Layer_1" xmlns="http://www.w3.org/2000/svg" xmlns:xlink="http://www.w3.org/1999/xlink" x="0px" y="0px"
	 viewBox="0 0 46.3 32" style="enable-background:new 0 0 46.3 32;" xml:space="preserve">
<path d="M9.1,30.9c0,0.3-0.1,0.5-0.3,0.8S8.3,32,8.1,32c0,0-0.1,0-0.3-0.1c-0.8-0.2-1.9-1.1-3.3-2.8C1.5,25.3,0,20.8,0,15.5
	c0-4.6,1.4-8.7,4.3-12.4c0.5-0.7,1.2-1.4,1.9-2.1S7.6,0,8.1,0c0.3,0,0.5,0.1,0.7,0.3s0.3,0.4,0.3,0.7c0,0.4-0.4,1-1.3,1.8
	c-1.3,1.4-2.3,2.6-3,3.7c-1.6,2.7-2.4,5.7-2.4,9c0,3.8,0.8,7.1,2.5,9.9c0.7,1.1,1.6,2.3,2.7,3.5c0,0,0.1,0.1,0.3,0.3
	s0.3,0.3,0.4,0.4c0.1,0.1,0.2,0.2,0.3,0.4C8.9,30.2,9,30.3,9,30.5S9.1,30.8,9.1,30.9z M36.1,28.2c0,0.4-0.1,0.7-0.4,1
	c-0.2,0.3-0.5,0.4-0.9,0.4H13.1c-0.3,0-0.7-0.1-0.9-0.4c-0.3-0.3-0.4-0.6-0.4-0.9c0-0.4,0.1-0.7,0.4-1s0.5-0.4,0.9-0.4h21.8
	c0.3,0,0.7,0.1,0.9,0.4C36,27.6,36.1,27.9,36.1,28.2z M31.8,15.9c0,1.8-0.4,3.4-1.3,4.7c-0.3,0.5-0.8,1-1.4,1.6
	c-0.6,0.5-1.2,0.9-1.7,1.2c-0.2,0.1-0.4,0.2-0.5,0.2c-0.1,0-0.2,0-0.3-0.1c-0.1-0.1-0.2-0.2-0.2-0.2c0-0.1,0.1-0.3,0.4-0.6
	c0.3-0.3,0.5-0.6,0.8-0.9c0.3-0.3,0.6-0.8,0.8-1.4c0.3-0.6,0.4-1.2,0.4-1.8c0-1-0.2-1.9-0.7-2.6c-0.4-0.6-0.7-0.8-0.9-0.8
	c0,0-0.1,0-0.1,0.1c0,0.2,0.1,0.4,0.2,0.7c0.1,0.3,0.2,0.6,0.2,0.7c0,0.3-0.1,0.5-0.4,0.7c-0.3,0.2-0.6,0.3-0.9,0.3
	c-0.9,0-1.3-0.5-1.3-1.5c0-0.2,0-0.5,0-0.9s0-0.7,0-0.9c0-0.3-0.1-0.6-0.2-0.9c-0.2-0.3-0.5-0.7-0.8-1.1c-0.4-0.4-0.7-0.6-1-0.6
	c-0.1,0-0.1,0-0.1,0c0,0-0.1,0-0.1,0.1c0,0,0,0.1,0,0.1c0,0,0.1,0.2,0.3,0.5c0.2,0.3,0.3,0.7,0.3,1.1c0,0.5-0.1,1-0.4,1.4
	c-0.3,0.4-0.6,0.8-0.9,1.1c-0.4,0.3-0.7,0.6-1.1,0.9c-0.4,0.3-0.7,0.7-0.9,1.1c-0.3,0.4-0.4,0.9-0.4,1.4c0,1.3,0.3,2.4,0.8,3.2
	c0.4,0.6,0.9,1,1.6,1.3c0.2,0.1,0.3,0.1,0.3,0.2c0,0,0,0.1,0,0.1c0,0.2-0.1,0.3-0.4,0.3c-0.1,0-0.3-0.1-0.7-0.2
	c-1.6-0.6-2.9-1.5-3.9-2.8c-1-1.3-1.5-2.8-1.5-4.4c0-0.7,0.2-1.5,0.5-2.3c0.3-0.8,0.7-1.6,1.2-2.3s0.9-1.5,1.4-2.2
	c0.5-0.7,0.9-1.5,1.2-2.3c0.3-0.8,0.5-1.5,0.5-2.2c0-0.7-0.2-1.3-0.5-1.9c-0.4-0.6-0.8-1.1-1.1-1.3c-0.3-0.1-0.4-0.3-0.4-0.4
	c0-0.3,0.3-0.4,0.8-0.4c0.7,0,1.4,0.2,2.2,0.6c0.6,0.3,1,0.6,1.4,0.9s0.7,0.7,1,1c0.3,0.3,0.5,0.8,0.7,1.3s0.3,1,0.4,1.4
	c0.1,0.4,0.2,1,0.3,1.6c0,0,0,0.1,0.1,0.4c0,0.2,0.1,0.4,0.1,0.5c0,0.1,0.1,0.3,0.1,0.5c0.1,0.2,0.1,0.4,0.2,0.5
	c0.1,0.1,0.1,0.3,0.2,0.4c0.1,0.1,0.2,0.3,0.3,0.3c0.1,0.1,0.2,0.1,0.4,0.1c0.3,0,0.6-0.1,0.7-0.3s0.3-0.4,0.3-0.7
	c0-0.3-0.1-0.8-0.4-1.3c-0.3-0.6-0.4-0.9-0.4-1c0-0.1,0.1-0.2,0.2-0.2c0.4,0,1,0.5,1.9,1.4c1,1,1.7,2.1,2.1,3.1
	C31.6,13.2,31.8,14.5,31.8,15.9z M46.4,16.5c0,3.7-0.9,7.1-2.8,10.1c-0.3,0.4-0.6,0.9-1,1.4c-0.4,0.5-0.8,1.1-1.4,1.7
	s-1.1,1.1-1.6,1.5S38.6,32,38.1,32c-0.2,0-0.4-0.1-0.6-0.3s-0.3-0.4-0.3-0.6c0-0.2,0.2-0.5,0.6-1c0.4-0.5,0.8-1,1.4-1.5
	s0.9-0.9,1-1.1c2.5-3.1,3.7-6.6,3.7-10.7c0-1.8-0.1-3.3-0.4-4.7S42.7,9.2,42,7.7c-0.8-1.6-1.9-3.1-3.3-4.6c0,0-0.1-0.1-0.3-0.3
	c-0.1-0.1-0.3-0.3-0.3-0.3c-0.1-0.1-0.2-0.2-0.3-0.4s-0.2-0.3-0.3-0.4c-0.1-0.1-0.1-0.2-0.2-0.4c-0.1-0.1-0.1-0.3-0.1-0.4
	c0-0.3,0.1-0.5,0.3-0.7C37.7,0.1,38,0,38.2,0c0.9,0,2.3,1.1,3.9,3.4c1.3,1.8,2.3,3.6,2.9,5.5s1,4,1.2,6.3
	C46.4,15.8,46.4,16.2,46.4,16.5z"/>
</svg>
