<svg version="1.1" xmlns="http://www.w3.org/2000/svg" width="32" height="32" viewBox="0 0 32 32">
<title>freecodecamp</title>
<path d="M6.29 28.1a.85.85 0 0 1-.22.58.67.67 0 0 1-.51.25l-.18 0q-.87-.23-2.25-2.15A17.4 17.4 0 0 1 0 16.34 16 16 0 0 1 3 6.89 12.79 12.79 0 0 1 4.28 5.3a2.11 2.11 0 0 1 1.31-.81.7.7 0 0 1 .49.21.66.66 0 0 1 .22.5q0 .42-.87 1.38a16.28 16.28 0 0 0-2 2.83 14.3 14.3 0 0 0-1.65 6.91 15.92 15.92 0 0 0 1.71 7.55 14 14 0 0 0 1.89 2.66l.2.25.27.32.24.32a1.54 1.54 0 0 1 .2.36A.93.93 0 0 1 6.29 28.1ZM24.94 26a1.15 1.15 0 0 1-.24.75.79.79 0 0 1-.65.3H9a.82.82 0 0 1-.62-.29 1 1 0 0 1-.26-.69 1.15 1.15 0 0 1 .24-.75.79.79 0 0 1 .65-.3h15a.82.82 0 0 1 .63.29A1 1 0 0 1 24.94 26Zm-3-9.4A6.74 6.74 0 0 1 21 20.23a6.37 6.37 0 0 1-1 1.21 5.56 5.56 0 0 1-1.16.93.71.71 0 0 1-.37.15.34.34 0 0 1-.21-.09.25.25 0 0 1-.11-.18 1 1 0 0 1 .26-.46l.58-.71a3.93 3.93 0 0 0 .58-1 3.6 3.6 0 0 0 .26-1.36 3.89 3.89 0 0 0-.49-2Q19 16 18.78 16s0 0 0 .08a2.17 2.17 0 0 0 .1.55 2.19 2.19 0 0 1 .1.56.62.62 0 0 1-.3.54A1.1 1.1 0 0 1 18 18q-.92 0-.92-1.17 0-.23 0-.68t0-.68a1.77 1.77 0 0 0-.14-.71 3.38 3.38 0 0 0-.58-.82 1.08 1.08 0 0 0-.71-.44h-.1l0 0a.17.17 0 0 0 0 .09 2.83 2.83 0 0 0 .22.4 1.58 1.58 0 0 1 .22.83 2.12 2.12 0 0 1-.26 1 3.39 3.39 0 0 1-.64.83l-.74.71a3.48 3.48 0 0 0-.63.83 2.12 2.12 0 0 0-.26 1A4.66 4.66 0 0 0 14 21.75a2.4 2.4 0 0 0 1.1 1q.22.08.24.15a.19.19 0 0 1 0 .08.22.22 0 0 1-.25.25 1.84 1.84 0 0 1-.46-.17A6 6 0 0 1 12 20.88a5.66 5.66 0 0 1-1.06-3.36 5.17 5.17 0 0 1 .34-1.78A10.79 10.79 0 0 1 12.09 14l1-1.67a11.12 11.12 0 0 0 .83-1.75 4.94 4.94 0 0 0 .34-1.71 3 3 0 0 0-.35-1.45 2.74 2.74 0 0 0-.78-1q-.26-.14-.26-.32t.57-.31a3.28 3.28 0 0 1 1.53.45 4.27 4.27 0 0 1 1 .68 5 5 0 0 1 .69.78 3.92 3.92 0 0 1 .47 1 10.36 10.36 0 0 1 .31 1.06q.11.49.22 1.23s0 .1 0 .27l.06.38q0 .13.08.38a2.34 2.34 0 0 0 .13.42l.15.33a.66.66 0 0 0 .2.25.43.43 0 0 0 .26.08.66.66 0 0 0 .51-.22.82.82 0 0 0 .19-.57 2.81 2.81 0 0 0-.28-1 3.18 3.18 0 0 1-.28-.8q0-.15.14-.15.38 0 1.29 1.08a7.44 7.44 0 0 1 1.42 2.4A8.79 8.79 0 0 1 22 16.64Zm10 .45a15.92 15.92 0 0 1-1.92 7.74q-.26.49-.67 1.11t-.94 1.33a6.69 6.69 0 0 1-1.12 1.18 1.74 1.74 0 0 1-1 .47.58.58 0 0 1-.43-.24.74.74 0 0 1-.21-.48 1.71 1.71 0 0 1 .4-.78q.4-.55 1-1.18t.67-.81a13.64 13.64 0 0 0 2.54-8.17A20.75 20.75 0 0 0 30 13.64a14.32 14.32 0 0 0-1-3.25 13.86 13.86 0 0 0-2.26-3.51l-.18-.21-.23-.25-.21-.27a3.4 3.4 0 0 1-.21-.31 1.72 1.72 0 0 1-.13-.28.86.86 0 0 1-.06-.29.81.81 0 0 1 .22-.55.64.64 0 0 1 .49-.25q1 0 2.72 2.6a15.64 15.64 0 0 1 2 4.2A21.07 21.07 0 0 1 32 16.1Q32 16.75 32 17.09Z"/>
</svg>
